<svg width="100" height="100" viewBox="0 0 100 100" fill="none" xmlns="http://www.w3.org/2000/svg">
<path d="M0 15C0 6.71573 6.71573 0 15 0H85C93.2843 0 100 6.71573 100 15V85C100 93.2843 93.2843 100 85 100H15C6.71573 100 0 93.2843 0 85V15Z" fill="#152C61"/>
<path d="M48.7841 80.9C43.1441 80.9 38.1341 79.85 33.7541 77.75C29.4341 75.59 26.0141 72.38 23.4941 68.12C21.0341 63.86 19.8041 58.52 19.8041 52.1C19.8041 46.94 20.5541 42.17 22.0541 37.79C23.6141 33.35 25.8341 29.48 28.7141 26.18C31.6541 22.88 35.2541 20.3 39.5141 18.44C43.7741 16.58 48.6041 15.65 54.0041 15.65C57.4841 15.65 60.8141 16.1 63.9941 17C67.1741 17.9 69.9641 19.22 72.3641 20.96C73.4441 21.74 74.1041 22.67 74.3441 23.75C74.6441 24.77 74.6441 25.79 74.3441 26.81C74.0441 27.83 73.5341 28.73 72.8141 29.51C72.1541 30.23 71.3441 30.68 70.3841 30.86C69.4241 30.98 68.4341 30.71 67.4141 30.05C65.0741 28.49 62.7941 27.41 60.5741 26.81C58.3541 26.21 56.0441 25.91 53.6441 25.91C49.0241 25.91 45.0941 27.05 41.8541 29.33C38.6741 31.55 36.2441 34.61 34.5641 38.51C32.8841 42.41 32.0441 46.82 32.0441 51.74C32.0441 56.18 32.7041 59.81 34.0241 62.63C35.4041 65.39 37.4141 67.43 40.0541 68.75C42.7541 70.01 46.0241 70.64 49.8641 70.64C52.0841 70.64 54.2141 70.37 56.2541 69.83C58.2941 69.29 60.3941 68.39 62.5541 67.13C63.7541 66.41 64.8341 66.14 65.7941 66.32C66.8141 66.44 67.6541 66.86 68.3141 67.58C68.9741 68.3 69.3941 69.17 69.5741 70.19C69.8141 71.15 69.7241 72.14 69.3041 73.16C68.9441 74.12 68.2241 74.96 67.1441 75.68C64.5041 77.42 61.5341 78.74 58.2341 79.64C54.9341 80.48 51.7841 80.9 48.7841 80.9Z" fill="#52FFE0"/>
<path d="M47.7104 56.3C46.6104 56.3 45.6404 56.04 44.8004 55.52C43.9804 55 43.3404 54.27 42.8804 53.33C42.4204 52.37 42.1904 51.25 42.1904 49.97C42.1904 48.29 42.4804 46.78 43.0604 45.44C43.6604 44.08 44.5104 43.01 45.6104 42.23C46.7304 41.43 48.0504 41.03 49.5704 41.03C50.6904 41.03 51.6804 41.3 52.5404 41.84C53.4004 42.38 54.0004 43.18 54.3404 44.24L54.1304 44.21L55.3604 36.38C55.4604 35.76 55.6904 35.31 56.0504 35.03C56.4104 34.75 56.9004 34.61 57.5204 34.61C58.1004 34.61 58.5204 34.79 58.7804 35.15C59.0604 35.51 59.1504 36.04 59.0504 36.74L56.2604 54.32C56.1604 54.94 55.9304 55.42 55.5704 55.76C55.2104 56.08 54.7204 56.24 54.1004 56.24C53.5204 56.24 53.1004 56.04 52.8404 55.64C52.6004 55.22 52.5404 54.67 52.6604 53.99L52.9304 52.34L52.9604 53.24C52.4204 54.18 51.7004 54.93 50.8004 55.49C49.9004 56.03 48.8704 56.3 47.7104 56.3ZM49.1804 53.45C50.1004 53.45 50.8704 53.19 51.4904 52.67C52.1304 52.13 52.6204 51.42 52.9604 50.54C53.3004 49.64 53.4704 48.64 53.4704 47.54C53.4704 46.36 53.1804 45.46 52.6004 44.84C52.0404 44.2 51.2604 43.88 50.2604 43.88C49.3604 43.88 48.5904 44.14 47.9504 44.66C47.3104 45.18 46.8204 45.89 46.4804 46.79C46.1404 47.67 45.9704 48.67 45.9704 49.79C45.9704 50.97 46.2504 51.88 46.8104 52.52C47.3904 53.14 48.1804 53.45 49.1804 53.45Z" fill="#52FFE0"/>
<path d="M62.8186 61.64C62.3386 61.64 61.9686 61.53 61.7086 61.31C61.4486 61.09 61.3086 60.8 61.2886 60.44C61.2686 60.1 61.3786 59.73 61.6186 59.33L64.4686 54.65L64.2286 56.21L60.7786 43.67C60.6386 43.17 60.6186 42.73 60.7186 42.35C60.8186 41.95 61.0186 41.64 61.3186 41.42C61.6386 41.2 62.0286 41.09 62.4886 41.09C63.0086 41.09 63.3986 41.22 63.6586 41.48C63.9386 41.72 64.1486 42.16 64.2886 42.8L66.6886 52.73H65.7586L71.6386 42.44C71.9186 41.96 72.2086 41.62 72.5086 41.42C72.8086 41.2 73.1986 41.09 73.6786 41.09C74.1586 41.09 74.5286 41.2 74.7886 41.42C75.0686 41.64 75.2186 41.93 75.2386 42.29C75.2786 42.63 75.1786 43.01 74.9386 43.43L64.8586 60.29C64.5786 60.77 64.2886 61.11 63.9886 61.31C63.6886 61.53 63.2986 61.64 62.8186 61.64Z" fill="#52FFE0"/>
</svg>
